<svg xmlns="http://www.w3.org/2000/svg" width="1303.292" height="103" viewBox="0 0 1303.292 103">
  <g id="Groupe_5" data-name="Groupe 5" transform="translate(-381.708 -143)">
    <g id="Groupe_4" data-name="Groupe 4" transform="translate(-89)">
      <path id="Tracé_4" data-name="Tracé 4" d="M255.666,258.534a5.958,5.958,0,0,1-3.865-10.492l33.211-28.282L251.8,191.477a5.954,5.954,0,0,1,7.72-9.066l38.538,32.815a5.958,5.958,0,0,1,0,9.07l-38.538,32.815a5.932,5.932,0,0,1-3.855,1.422Zm0,0" transform="translate(382.486 -25.706)" fill="#09f3eb"/>
      <path id="Tracé_11" data-name="Tracé 11" d="M294.195,258.534a5.958,5.958,0,0,0,3.865-10.492l-33.211-28.282,33.211-28.282a5.954,5.954,0,0,0-7.72-9.066L251.8,215.226a5.958,5.958,0,0,0,0,9.07l38.538,32.815a5.932,5.932,0,0,0,3.855,1.422Zm0,0" transform="translate(221 -25.706)" fill="#09f3eb"/>
      <g id="Groupe_3" data-name="Groupe 3" transform="translate(534.04 153.5)">
        <path id="Soustraction_2" data-name="Soustraction 2" d="M39.234,26.9A2.661,2.661,0,0,1,36.711,23.4,13.7,13.7,0,0,0,23.846,5.489H2.66a2.66,2.66,0,1,1,0-5.32H17.121c.112.076.169.127.172.152a.013.013,0,0,1,0,.011A32.251,32.251,0,0,1,21.832,0,25.4,25.4,0,0,1,31.5,1.8,18.963,18.963,0,0,1,42.625,17.5v3.269a18.247,18.247,0,0,1-.869,4.322A2.657,2.657,0,0,1,39.234,26.9Z" transform="translate(7.865 53.474)" fill="#fff"/>
        <path id="Soustraction_1" data-name="Soustraction 1" d="M26.5,30.633a2.346,2.346,0,0,1-2.423-2.254V4.509H1.186l0,0A12.6,12.6,0,0,1,.4,2.886C.088,2.082-.2,1,.189.422a1.121,1.121,0,0,1,1-.422h22.17l.017.017h5.553V28.378A2.346,2.346,0,0,1,26.5,30.633Z" transform="translate(46.343 48.17)" fill="#fff"/>
        <g id="Groupe_2" data-name="Groupe 2">
          <path id="Intersection_1" data-name="Intersection 1" d="M56.083,81.226a3.8,3.8,0,0,1-2.4-4.811A19.582,19.582,0,0,0,35.306,50.83H5.035a3.8,3.8,0,0,1,0-7.6h21.5a3.828,3.828,0,0,1,.539-.042,17.841,17.841,0,0,0,0-35.681H0V0H29.287A25.417,25.417,0,0,1,43.709,44.579,27.085,27.085,0,0,1,62.136,67.985v4.671a26.011,26.011,0,0,1-1.242,6.174,3.8,3.8,0,0,1-4.811,2.4Z" transform="translate(0 0)" fill="#09f3eb"/>
          <path id="letter-h" d="M139.632,44.57h28.726V78.244a3.043,3.043,0,1,0,6.079,0V3.181a3.043,3.043,0,1,0-6.079,0V38.209H139.632C136.28,38.209,139.632,44.57,139.632,44.57Z" transform="translate(-89.162 0)" fill="#09f3eb"/>
        </g>
      </g>
    </g>
    <text id="Borhaneddine_Hamadou" data-name="Borhaneddine Hamadou" transform="translate(610 225)" fill="#fff" font-size="85" font-family="Montserrat-Medium, Montserrat" font-weight="500"><tspan x="0" y="0">Borhaneddine Hamadou</tspan></text>
  </g>
</svg>
