<svg xmlns="http://www.w3.org/2000/svg" width="404.214" height="155.299" viewBox="0 0 404.214 155.299">
  <g id="Groupe_4" data-name="Groupe 4" transform="translate(-470.708 -153.5)">
    <path id="Tracé_4" data-name="Tracé 4" d="M261.072,328.889a11.365,11.365,0,0,1-7.372-20.011l63.342-53.942L253.7,200.993A11.356,11.356,0,0,1,268.425,183.7l73.5,62.588a11.363,11.363,0,0,1,0,17.3l-73.5,62.588a11.314,11.314,0,0,1-7.353,2.713Zm0,0" transform="translate(529 -24.089)" fill="#09f3eb"/>
    <path id="Tracé_11" data-name="Tracé 11" d="M334.557,328.889a11.365,11.365,0,0,0,7.372-20.011l-63.342-53.942,63.342-53.942A11.356,11.356,0,0,0,327.2,183.7l-73.5,62.588a11.363,11.363,0,0,0,0,17.3l73.5,62.588a11.314,11.314,0,0,0,7.353,2.713Zm0,0" transform="translate(221 -24.089)" fill="#09f3eb"/>
    <g id="Groupe_3" data-name="Groupe 3">
      <path id="Soustraction_2" data-name="Soustraction 2" d="M94.893,170.7a5.075,5.075,0,0,1-4.811-6.686,26.139,26.139,0,0,0-24.537-34.154H25.136a5.073,5.073,0,1,1,0-10.147H52.718c.213.145.323.242.327.29a.024.024,0,0,1-.007.02,61.513,61.513,0,0,1,8.664-.632,48.446,48.446,0,0,1,18.443,3.438,36.168,36.168,0,0,1,21.214,29.93V159a34.8,34.8,0,0,1-1.658,8.242A5.068,5.068,0,0,1,94.893,170.7Z" transform="translate(586.437 136.099)" fill="#fff"/>
      <path id="Soustraction_1" data-name="Soustraction 1" d="M50.554,150.314a4.474,4.474,0,0,1-4.621-4.3V100.489H2.265l0-.006a24.022,24.022,0,0,1-1.49-3.09c-.6-1.534-1.156-3.595-.406-4.7a2.138,2.138,0,0,1,1.9-.806H44.55l.032.032H55.174v54.093A4.474,4.474,0,0,1,50.554,150.314Z" transform="translate(679.886 153.486)" fill="#fff"/>
      <g id="Groupe_2" data-name="Groupe 2" transform="translate(-279 55)">
        <path id="Intersection_1" data-name="Intersection 1" d="M106.967,154.922a7.248,7.248,0,0,1-4.569-9.176,37.348,37.348,0,0,0-35.058-48.8H9.6a7.248,7.248,0,0,1,0-14.5H50.618a7.3,7.3,0,0,1,1.027-.081,34.027,34.027,0,0,0,0-68.055H0V0H55.859A48.478,48.478,0,0,1,83.366,85.026a51.658,51.658,0,0,1,35.146,44.641v8.909a49.61,49.61,0,0,1-2.369,11.776,7.241,7.241,0,0,1-9.176,4.569Z" transform="translate(870.5 98.5)" fill="#09f3eb"/>
        <path id="letter-h" d="M140.983,85.007h54.788v64.226a5.8,5.8,0,1,0,11.594,0V6.066a5.8,5.8,0,1,0-11.594,0V72.875H140.983C134.59,72.875,140.983,85.007,140.983,85.007Z" transform="translate(825.777 98.5)" fill="#09f3eb"/>
      </g>
    </g>
  </g>
</svg>
